<?xml version="1.0" standalone="yes"?>
<svg xmlns="http://www.w3.org/2000/svg" height="350" width="350" >
<path style="fill:#030303; stroke:none;" d="M63 114C57.4816 114 51.3578 113.266 46 114.789C30.7772 119.115 27 133.025 27 147L63 147L63 114L149 114C164.906 114 179.264 114.523 188.518 99C192.88 91.6831 192 83.1687 192 75L192 30L152 30C142.966 30 133.871 29.4642 125 31.5C87.3752 40.1344 63 76.9658 63 114M208 47C208 56.251 206.494 67.0154 208.927 76C216.494 103.932 252.288 97 274 97C273.002 74.1053 253.17 54.6123 232 48.7454C224.118 46.5611 216.094 47 208 47M205 102C199.365 115.061 187.375 126.944 173 129.535C162.806 131.374 151.343 130 141 130L80 130L80 147L139 147C143.932 147 155.655 144.862 159.397 148.603C162.544 151.751 161 159.904 161 164L177 164C177 159.904 175.456 151.751 178.603 148.603C182.345 144.862 194.068 147 199 147L258 147L258 114C247.254 114 235.395 115.431 225 112.226C217.673 109.967 212.138 104.367 205 102M275 114L275 147L311 147C311 142.735 311.431 138.184 310.471 134C306.352 116.058 290.292 114 275 114M27 164L27 231C27 241.188 25.3548 253.205 31.6381 261.999C39.6718 273.243 50.5669 273 63 273L63 164L27 164M80 164C80 175.121 77.8151 188.729 82.821 199C93.2666 220.431 124.127 223.667 138.211 203.999C146.309 192.689 144 177.115 144 164L80 164M194 164C194 177.5 191.931 192.291 200.055 203.999C213.062 222.745 243.398 220.967 254.352 201C260.303 190.152 258 175.955 258 164L194 164M275 164L275 273C285.391 273 295.791 273.843 303.671 265.699C312.419 256.659 311 244.516 311 233L311 164L275 164M161 181C160.922 209.444 139.178 236.014 109 233.91C97.6894 233.122 89.9941 227.148 80 223L80 315L258 315L258 223C248.177 227.646 240.275 233.125 229 233.91C198.764 236.018 177.581 209.142 177 181L161 181z"/>
<path style="fill:#fdfdfd; stroke:none;" d="M136 248L136 265L202 265L202 248L136 248z"/>
</svg>
